<svg width="25" height="25" viewBox="0 0 25 25" fill="none" xmlns="http://www.w3.org/2000/svg">
<path d="M14.8825 13.1924C14.8825 14.5169 13.7814 15.6097 12.3994 15.6097C11.0175 15.6097 9.91634 14.5169 9.91634 13.1924C9.91634 11.8678 11.0175 10.775 12.3994 10.775C13.7814 10.775 14.8825 11.8678 14.8825 13.1924Z" stroke="#B2B2B2" stroke-width="0.999792"/>
<path d="M14.8151 6.22813L15.2057 5.91612L15.0557 5.7283L14.8153 5.72823L14.8151 6.22813ZM9.82335 6.22668L9.8235 5.72679L9.56742 5.72671L9.41774 5.93449L9.82335 6.22668ZM16.4201 8.23718L16.0295 8.54919L16.1796 8.73708H16.4201V8.23718ZM8.37503 8.23718V8.73708H8.63102L8.78064 8.52938L8.37503 8.23718ZM14.8153 5.72823L9.8235 5.72679L9.82321 6.72658L14.815 6.72803L14.8153 5.72823ZM16.8107 7.92517L15.2057 5.91612L14.4246 6.54014L16.0295 8.54919L16.8107 7.92517ZM16.4201 8.73708H17.8237V7.73729H16.4201V8.73708ZM17.8237 8.73708C18.652 8.73708 19.3234 9.40851 19.3234 10.2368H20.3232C20.3232 8.85634 19.2041 7.73729 17.8237 7.73729V8.73708ZM19.3234 10.2368V16.7761H20.3232V10.2368H19.3234ZM19.3234 16.7761C19.3234 17.6043 18.652 18.2758 17.8237 18.2758V19.2756C19.2041 19.2756 20.3232 18.1565 20.3232 16.7761H19.3234ZM17.8237 18.2758H6.96925V19.2756H17.8237V18.2758ZM6.96925 18.2758C6.141 18.2758 5.46956 17.6043 5.46956 16.7761H4.46977C4.46977 18.1565 5.58883 19.2756 6.96925 19.2756V18.2758ZM5.46956 16.7761V10.2368H4.46977V16.7761H5.46956ZM5.46956 10.2368C5.46956 9.40851 6.14099 8.73708 6.96925 8.73708V7.73729C5.58883 7.73729 4.46977 8.85634 4.46977 10.2368H5.46956ZM6.96925 8.73708H8.37503V7.73729H6.96925V8.73708ZM9.41774 5.93449L7.96942 7.94499L8.78064 8.52938L10.229 6.51888L9.41774 5.93449Z" fill="#B2B2B2"/>
</svg>
