<svg width="24" height="25" viewBox="0 0 24 25" fill="none" xmlns="http://www.w3.org/2000/svg">
<path d="M14.4827 13.2214C14.4827 14.546 13.3815 15.6387 11.9996 15.6387C10.6177 15.6387 9.5165 14.546 9.5165 13.2214C9.5165 11.8968 10.6177 10.8041 11.9996 10.8041C13.3815 10.8041 14.4827 11.8968 14.4827 13.2214Z" stroke="#141414" stroke-width="0.999792"/>
<path d="M14.4148 6.2573L14.8054 5.94529L14.6554 5.75748L14.415 5.75741L14.4148 6.2573ZM9.42302 6.25586L9.42317 5.75596L9.16709 5.75589L9.01741 5.96367L9.42302 6.25586ZM16.0198 8.26636L15.6292 8.57837L15.7793 8.76625H16.0198V8.26636ZM7.9747 8.26636V8.76625H8.23069L8.38031 8.55855L7.9747 8.26636ZM14.415 5.75741L9.42317 5.75596L9.42288 6.75576L14.4147 6.7572L14.415 5.75741ZM16.4103 7.95435L14.8054 5.94529L14.0242 6.56931L15.6292 8.57837L16.4103 7.95435ZM16.0198 8.76625H17.4234V7.76646H16.0198V8.76625ZM17.4234 8.76625C18.2516 8.76625 18.9231 9.43769 18.9231 10.2659H19.9229C19.9229 8.88552 18.8038 7.76646 17.4234 7.76646V8.76625ZM18.9231 10.2659V16.8053H19.9229V10.2659H18.9231ZM18.9231 16.8053C18.9231 17.6335 18.2516 18.3049 17.4234 18.3049V19.3047C18.8038 19.3047 19.9229 18.1857 19.9229 16.8053H18.9231ZM17.4234 18.3049H6.56892V19.3047H17.4234V18.3049ZM6.56892 18.3049C5.74067 18.3049 5.06923 17.6335 5.06923 16.8053H4.06944C4.06944 18.1857 5.1885 19.3047 6.56892 19.3047V18.3049ZM5.06923 16.8053V10.2659H4.06944V16.8053H5.06923ZM5.06923 10.2659C5.06923 9.43769 5.74066 8.76625 6.56892 8.76625V7.76646C5.1885 7.76646 4.06944 8.88552 4.06944 10.2659H5.06923ZM6.56892 8.76625H7.9747V7.76646H6.56892V8.76625ZM9.01741 5.96367L7.56909 7.97416L8.38031 8.55855L9.82863 6.54805L9.01741 5.96367Z" fill="#141414"/>
</svg>
