<svg width="25" height="25" viewBox="0 0 25 25" fill="none" xmlns="http://www.w3.org/2000/svg">
<path d="M14.8826 13.1924C14.8826 14.5169 13.7814 15.6097 12.3995 15.6097C11.0175 15.6097 9.91637 14.5169 9.91637 13.1924C9.91637 11.8678 11.0175 10.775 12.3995 10.775C13.7814 10.775 14.8826 11.8678 14.8826 13.1924Z" stroke="#2F9DE6" stroke-width="0.999792"/>
<path d="M14.8152 6.22801L15.2057 5.916L15.0557 5.72818L14.8153 5.72811L14.8152 6.22801ZM9.82336 6.22656L9.8235 5.72667L9.56743 5.72659L9.41775 5.93437L9.82336 6.22656ZM16.4201 8.23706L16.0295 8.54907L16.1796 8.73696H16.4201V8.23706ZM8.37504 8.23706V8.73696H8.63102L8.78064 8.52925L8.37504 8.23706ZM14.8153 5.72811L9.8235 5.72667L9.82321 6.72646L14.815 6.7279L14.8153 5.72811ZM16.8107 7.92505L15.2057 5.916L14.4246 6.54002L16.0295 8.54907L16.8107 7.92505ZM16.4201 8.73696H17.8237V7.73716H16.4201V8.73696ZM17.8237 8.73696C18.652 8.73696 19.3234 9.40839 19.3234 10.2366H20.3232C20.3232 8.85622 19.2041 7.73716 17.8237 7.73716V8.73696ZM19.3234 10.2366V16.776H20.3232V10.2366H19.3234ZM19.3234 16.776C19.3234 17.6042 18.652 18.2756 17.8237 18.2756V19.2754C19.2041 19.2754 20.3232 18.1564 20.3232 16.776H19.3234ZM17.8237 18.2756H6.96925V19.2754H17.8237V18.2756ZM6.96925 18.2756C6.141 18.2756 5.46957 17.6042 5.46957 16.776H4.46977C4.46977 18.1564 5.58883 19.2754 6.96925 19.2754V18.2756ZM5.46957 16.776V10.2366H4.46977V16.776H5.46957ZM5.46957 10.2366C5.46957 9.40839 6.141 8.73696 6.96925 8.73696V7.73716C5.58883 7.73716 4.46977 8.85622 4.46977 10.2366H5.46957ZM6.96925 8.73696H8.37504V7.73716H6.96925V8.73696ZM9.41775 5.93437L7.96943 7.94487L8.78064 8.52925L10.229 6.51876L9.41775 5.93437Z" fill="#2F9DE6"/>
</svg>
